<svg xmlns="http://www.w3.org/2000/svg" viewBox="0 0 512 512">
  <defs><clipPath id="t"><rect width="512" height="512" rx="0"/></clipPath></defs>
  <g clip-path="url(#t)">
    <rect width="512" height="512" fill="#0f766e"/>
    <g stroke="#ffffff" stroke-opacity="0.14" stroke-width="16">
      <line x1="-30" y1="440" x2="70" y2="540"/>
      <line x1="-30" y1="380" x2="130" y2="540"/>
    </g>
  </g>
  <rect x="64" y="128" width="270" height="118" rx="10" fill="#ffffff"/>
  <g stroke="#0f766e" stroke-opacity="0.35" stroke-width="6"><line x1="110" y1="140" x2="110" y2="234"/><line x1="156" y1="140" x2="156" y2="234"/><line x1="202" y1="140" x2="202" y2="234"/><line x1="248" y1="140" x2="248" y2="234"/><line x1="294" y1="140" x2="294" y2="234"/></g>
  <rect x="60" y="246" width="290" height="10" rx="3" fill="#ffffff"/>
  <circle cx="250" cy="270" r="22" fill="#1f2937" stroke="#ffffff" stroke-width="7"/><circle cx="302" cy="270" r="22" fill="#1f2937" stroke="#ffffff" stroke-width="7"/>
  <rect x="96" y="256" width="14" height="30" fill="#ffffff"/>
  <path d="M392 40c-38 0-66 29-66 66 0 48 66 116 66 116s66-68 66-116c0-37-28-66-66-66z" fill="#b03537" stroke="#ffffff" stroke-width="8"/>
  <circle cx="392" cy="104" r="22" fill="#ffffff"/>
  <g font-family="Helvetica Neue, Helvetica, Arial, sans-serif" font-weight="800" text-anchor="middle" fill="#ffffff">
    <text x="256" y="372" font-size="72" letter-spacing="3">RASTREO</text>
    <text x="256" y="424" font-size="32" letter-spacing="1" fill-opacity="0.9">CAJAS · PLATAFORMAS</text>
  </g>
</svg>
